<svg xmlns:mydata="http://www.w3.org/2000/svg" mydata:contrastcolor="ffffff" mydata:template="Contrast" mydata:presentation="2.5" mydata:layouttype="undefined" mydata:specialfontid="undefined" mydata:id1="902" mydata:id2="015" mydata:companyname="Escola Santos" mydata:companytagline="" version="1.1" xmlns="http://www.w3.org/2000/svg" xmlns:xlink="http://www.w3.org/1999/xlink" style="height: 668px;" viewBox="0 0 550 470"><g fill="#101820" fill-rule="none" stroke="none" stroke-width="1" stroke-linecap="butt" stroke-linejoin="miter" stroke-miterlimit="10" stroke-dasharray="" stroke-dashoffset="0" font-family="none" font-weight="none" font-size="none" text-anchor="none" style="mix-blend-mode: normal"><g data-paper-data="{&quot;isGlobalGroup&quot;:true,&quot;bounds&quot;:{&quot;x&quot;:65,&quot;y&quot;:140.07202565674476,&quot;width&quot;:420,&quot;height&quot;:189.8559486865105}}"><g data-paper-data="{&quot;isPrimaryText&quot;:true}" fill-rule="nonzero" id="element-id-58570"><path d="M95.11371,326.29778l-23.11495,2.10733c0,-2.35464 0.00197,-11.31362 -0.00099,-24.82194l20.11563,2.46818v-3.0867h-20.11612c-0.00148,-6.72775 -0.00395,-14.55384 -0.00839,-23.23145l21.01207,2.10733l-0.04196,-2.72536h-25.09739v0.00049h-2.8616l2.8616,3.92835v42.05178l-2.8616,3.92835h30.11223c0,-0.20042 0.01481,-2.52988 0.00148,-2.72635z" data-paper-data="{&quot;glyphName&quot;:&quot;E&quot;,&quot;glyphIndex&quot;:0,&quot;firstGlyphOfWord&quot;:true,&quot;word&quot;:1}" fill="#101820" id="element-id-89836"></path><path d="M119.77075,312.41028c-1.10278,-1.03762 -2.6059,-2.0555 -4.80652,-3.26194h0.00839c-0.116,-0.06319 -0.22559,-0.12538 -0.34554,-0.19005c-0.47734,-0.27298 -0.96259,-0.54645 -1.45721,-0.81993c-0.67036,-0.37072 -1.34812,-0.7291 -1.9464,-1.04552c-0.91767,-0.48524 -1.95825,-1.03515 -2.86654,-1.57321c-1.28937,-0.83276 -2.38376,-1.67392 -3.25305,-2.50026c-1.59493,-1.51595 -2.82705,-3.02351 -3.1484,-4.60808c-0.08639,-0.42946 -0.12834,-1.07217 -0.12834,-1.46313c0,-3.94414 3.97524,-7.47067 9.66241,-7.47067c0.66394,0 1.30715,0.03702 1.9311,0.10959c1.30172,0.15105 2.5442,0.59187 3.65882,1.23359l6.35456,3.65932l-0.88459,-4.88402l-8.70821,-0.63975l0.00049,0.00049c-0.8224,-0.05381 -1.6828,-0.08096 -2.5827,-0.08096c-6.9489,0 -12.39271,3.96586 -12.39271,9.02858c0,3.03931 1.32739,5.5761 4.17862,7.98208c1.10278,1.03762 2.6059,2.0555 4.80652,3.26194h-0.00839c0.116,0.06319 0.22559,0.12538 0.34505,0.19005c0.47784,0.27298 0.96259,0.54645 1.45721,0.81993c0.67036,0.37072 1.34812,0.7291 1.9464,1.04552c0.91767,0.48524 1.95825,1.03515 2.86654,1.57321c1.28937,0.83276 2.38376,1.67392 3.25305,2.50026c1.59493,1.51595 2.82705,3.02351 3.1484,4.60808c0.08639,0.42946 0.12834,1.07217 0.12834,1.46313c0,3.94414 -3.97524,7.47067 -9.66241,7.47067c-0.43637,0 -0.86337,-0.0158 -1.28197,-0.04739c-1.61814,-0.12193 -3.1721,-0.64173 -4.55181,-1.43598l-6.11071,-3.51863l0.88459,4.88402l8.70821,0.63975l-0.00049,-0.00049c0.8224,0.05381 1.6828,0.08096 2.5827,0.08096c6.9489,0 12.39271,-3.96586 12.39271,-9.02858c0.00049,-3.03931 -1.32689,-5.57659 -4.17813,-7.98257z" data-paper-data="{&quot;glyphName&quot;:&quot;s&quot;,&quot;glyphIndex&quot;:1,&quot;word&quot;:1}" fill="#101820" id="element-id-14797"></path><path d="M148.94105,328.92632c-9.96748,0 -16.23368,-8.85482 -16.23368,-19.77798c0,-10.92315 6.26571,-19.77798 16.23368,-19.77798c8.66724,0 13.56163,6.77761 16.17691,14.64516l3.03388,-1.34022c-2.70166,-8.02058 -10.27847,-13.79957 -19.21079,-13.79957c-11.19613,0 -20.2726,9.07696 -20.2726,20.2726c0,11.19564 9.07696,20.27211 20.2726,20.27211c8.93183,0 16.50863,-5.77849 19.21079,-13.79957l-1.01146,-0.48771c-2.63354,7.86903 -9.59824,13.79315 -18.19933,13.79315z" data-paper-data="{&quot;glyphName&quot;:&quot;c&quot;,&quot;glyphIndex&quot;:2,&quot;word&quot;:1}" fill="#101820" id="element-id-29829"></path><path d="M193.00298,288.87574c-11.19613,0 -20.2726,9.07647 -20.2726,20.27211c0,11.19564 9.07696,20.2726 20.2726,20.2726c11.19663,0 20.27211,-9.07696 20.27211,-20.2726c0,-11.19564 -9.07548,-20.27211 -20.27211,-20.27211zM198.12444,328.2604c-9.49556,2.54419 -17.97325,-4.35584 -20.80178,-14.91123c-2.82803,-10.5549 1.06428,-20.76969 10.55935,-23.31389c9.49556,-2.54419 17.97276,4.35584 20.80129,14.91074c2.82803,10.55589 -1.06378,20.77018 -10.55885,23.31438z" data-paper-data="{&quot;glyphName&quot;:&quot;o&quot;,&quot;glyphIndex&quot;:3,&quot;word&quot;:1}" fill="#101820" id="element-id-62390"></path><path d="M224.75926,325.14606v-48.68129h-6.7549l2.8616,3.92835v44.70161l-2.8616,3.92835h9.57899z" data-paper-data="{&quot;glyphName&quot;:&quot;l&quot;,&quot;glyphIndex&quot;:4,&quot;word&quot;:1}" fill="#101820" id="element-id-86093"></path><path d="M265.00612,329.02307l-2.79743,-3.83999v-25.36297c0,-6.04407 -5.78491,-10.94339 -11.82848,-10.94339c-6.04357,0 -10.94389,4.89982 -10.94389,10.94339v2.54765c-4.47332,2.38278 -7.52892,7.15771 -7.52892,12.66272c0,7.88631 6.26521,14.27889 13.99406,14.27889c5.39938,0 10.08101,-3.12224 12.41443,-7.69182v7.41144h3.89281v-0.00592zM258.31588,320.54637c-2.08314,4.76851 -6.77218,8.09561 -12.1839,8.09561c-6.74404,0 -10.18566,-6.09392 -10.18566,-13.61149c0,-7.51707 3.44162,-13.611 10.18566,-13.611c5.37717,0 10.09187,3.33599 12.1839,8.11437zM258.31588,304.96083v3.48309c-2.33341,-4.56958 -7.01554,-7.69182 -12.41443,-7.69182c-2.03624,0 -3.96883,0.44723 -5.71383,1.24495v-2.17693c0,-6.33581 5.4828,-10.3609 10.19208,-10.3609c4.70977,0 7.93716,4.63918 7.93716,10.3609v5.14072z" data-paper-data="{&quot;glyphName&quot;:&quot;a&quot;,&quot;glyphIndex&quot;:5,&quot;lastGlyphOfWord&quot;:true,&quot;word&quot;:1}" fill="#101820" id="element-id-50309"></path><path d="M315.31818,308.22976c-1.30517,-1.32344 -3.08324,-2.6217 -5.68668,-4.16085h0.00987c-0.13723,-0.08096 -0.26656,-0.15994 -0.40873,-0.24237c-0.56521,-0.34851 -1.13882,-0.69701 -1.72377,-1.04601c-0.79278,-0.4729 -1.59493,-0.93001 -2.30281,-1.33331c-1.086,-0.61902 -2.31663,-1.32047 -3.39127,-2.00663c-1.52533,-1.06181 -2.82014,-2.13497 -3.84887,-3.18937c-1.88667,-1.93406 -3.34487,-3.85677 -3.72497,-5.87821c-0.10268,-0.54744 -0.15204,-1.36737 -0.15204,-1.86594c0,-5.03063 4.70286,-9.52962 11.43111,-9.52962c0.78587,0 1.54606,0.04739 2.28454,0.1397c1.53965,0.19252 3.01019,0.75526 4.32869,1.57371l7.51806,4.66732l-1.047,-6.23017l-10.30266,-0.81598l0.00049,0.00049c-0.97295,-0.06862 -1.99083,-0.10268 -3.05511,-0.10268c-8.22149,0 -14.66145,5.05877 -14.66145,11.5165c0,3.87652 1.57025,7.11279 4.94326,10.18171c1.30517,1.32344 3.08324,2.6217 5.68668,4.16085h-0.00987c0.13723,0.08096 0.26656,0.15994 0.40873,0.24237c0.56521,0.34851 1.13882,0.69701 1.72377,1.04601c0.79278,0.4729 1.59493,0.93001 2.30281,1.33331c1.086,0.61902 2.31663,1.32047 3.39127,2.00663c1.52533,1.06181 2.82014,2.13497 3.84887,3.18937c1.88667,1.93406 3.34487,3.85677 3.72497,5.87821c0.10268,0.54744 0.15204,1.36737 0.15204,1.86594c0,5.03063 -4.70286,9.52962 -11.43111,9.52962c-0.51585,0 -1.02133,-0.02073 -1.51694,-0.06072c-1.91432,-0.15549 -3.75311,-0.81894 -5.38506,-1.83188l-7.22978,-4.48813l1.047,6.23017l10.30266,0.81598l-0.00049,-0.00049c0.97295,0.06862 1.99083,0.10268 3.05511,0.10268c8.22149,0 14.66145,-5.05877 14.66145,-11.5165c0.00049,-3.87652 -1.56976,-7.11229 -4.94277,-10.18172z" data-paper-data="{&quot;glyphName&quot;:&quot;S&quot;,&quot;glyphIndex&quot;:6,&quot;firstGlyphOfWord&quot;:true,&quot;word&quot;:2}" fill="#101820" id="element-id-71895"></path><path d="M357.62172,329.02307l-2.79743,-3.83999v-25.36297c0,-6.04407 -5.78491,-10.94339 -11.82848,-10.94339c-6.04357,0 -10.94389,4.89982 -10.94389,10.94339v2.54765c-4.47332,2.38278 -7.52892,7.15771 -7.52892,12.66272c0,7.88631 6.26521,14.27889 13.99406,14.27889c5.39938,0 10.08101,-3.12224 12.41443,-7.69182v7.41144h3.89281v-0.00592zM350.93149,320.54637c-2.08314,4.76851 -6.77218,8.09561 -12.1839,8.09561c-6.74404,0 -10.18566,-6.09392 -10.18566,-13.61149c0,-7.51707 3.44162,-13.611 10.18566,-13.611c5.37717,0 10.09187,3.33599 12.1839,8.11437zM350.93149,304.96083v3.48309c-2.33341,-4.56958 -7.01554,-7.69182 -12.41443,-7.69182c-2.03624,0 -3.96883,0.44723 -5.71383,1.24495v-2.17693c0,-6.33581 5.4828,-10.3609 10.19208,-10.3609c4.70977,0 7.93716,4.63918 7.93716,10.3609v5.14072z" data-paper-data="{&quot;glyphName&quot;:&quot;a&quot;,&quot;glyphIndex&quot;:7,&quot;word&quot;:2}" fill="#101820" id="element-id-60931"></path><path d="M394.10999,325.09472v-25.04309c0,-6.17291 -6.55152,-11.17639 -13.7349,-11.17639c-4.90723,0 -9.17914,2.33637 -11.39359,5.7854v-5.38753h-3.87997v-0.00049h-2.8621l2.8621,3.92835v31.89376l-2.8621,3.92835h9.59873l-2.85667,-3.92094v-29.40386c1.87186,-3.71855 6.0495,-6.31063 10.8111,-6.31063c5.99767,0 10.42458,4.77444 10.42458,10.66449v25.05049l-2.85617,3.92045h9.61058z" data-paper-data="{&quot;glyphName&quot;:&quot;n&quot;,&quot;glyphIndex&quot;:8,&quot;word&quot;:2}" fill="#101820" id="element-id-78494"></path><path d="M412.55736,289.80278v-0.52819h-5.75578v-7.31567l-7.84386,7.84386h4.02312l-0.00494,31.22735c0.00494,5.25228 2.81372,7.99195 8.7324,7.99195v-0.57262c-4.04781,0 -4.93635,-2.51754 -4.9166,-7.37491c0,0 0.00494,-17.70669 0.00987,-31.27178z" data-paper-data="{&quot;glyphName&quot;:&quot;t&quot;,&quot;glyphIndex&quot;:9,&quot;word&quot;:2}" fill="#101820" id="element-id-9953"></path><path d="M434.84449,288.87574c-11.19613,0 -20.2726,9.07647 -20.2726,20.27211c0,11.19564 9.07696,20.2726 20.2726,20.2726c11.19663,0 20.27211,-9.07696 20.27211,-20.2726c0,-11.19564 -9.07548,-20.27211 -20.27211,-20.27211zM439.96596,328.2604c-9.49556,2.54419 -17.97325,-4.35584 -20.80178,-14.91123c-2.82803,-10.5549 1.06428,-20.76969 10.55935,-23.31389c9.49556,-2.54419 17.97276,4.35584 20.80129,14.91074c2.82803,10.55589 -1.06378,20.77018 -10.55885,23.31438z" data-paper-data="{&quot;glyphName&quot;:&quot;o&quot;,&quot;glyphIndex&quot;:10,&quot;word&quot;:2}" fill="#101820" id="element-id-72560"></path><path d="M480.82187,312.41028c-1.10278,-1.03762 -2.6059,-2.0555 -4.80652,-3.26194h0.00839c-0.116,-0.06319 -0.22559,-0.12538 -0.34554,-0.19005c-0.47734,-0.27298 -0.96259,-0.54645 -1.45721,-0.81993c-0.67036,-0.37072 -1.34812,-0.7291 -1.9464,-1.04552c-0.91767,-0.48524 -1.95825,-1.03515 -2.86654,-1.57321c-1.28937,-0.83276 -2.38376,-1.67392 -3.25305,-2.50026c-1.59493,-1.51595 -2.82705,-3.02351 -3.1484,-4.60808c-0.08639,-0.42946 -0.12834,-1.07217 -0.12834,-1.46313c0,-3.94414 3.97524,-7.47067 9.66241,-7.47067c0.66394,0 1.30715,0.03702 1.9311,0.10959c1.30172,0.15105 2.5442,0.59187 3.65882,1.23359l6.35456,3.65932l-0.88459,-4.88402l-8.70821,-0.63975l0.00049,0.00049c-0.8224,-0.05381 -1.6828,-0.08096 -2.5827,-0.08096c-6.9489,0 -12.39271,3.96586 -12.39271,9.02858c0,3.03931 1.32739,5.5761 4.17862,7.98208c1.10278,1.03762 2.6059,2.0555 4.80652,3.26194h-0.00839c0.116,0.06319 0.22559,0.12538 0.34505,0.19005c0.47784,0.27298 0.96259,0.54645 1.45721,0.81993c0.67036,0.37072 1.34812,0.7291 1.9464,1.04552c0.91767,0.48524 1.95825,1.03515 2.86654,1.57321c1.28937,0.83276 2.38376,1.67392 3.25305,2.50026c1.59493,1.51595 2.82705,3.02351 3.1484,4.60808c0.08639,0.42946 0.12834,1.07217 0.12834,1.46313c0,3.94414 -3.97524,7.47067 -9.66241,7.47067c-0.43637,0 -0.86337,-0.0158 -1.28197,-0.04739c-1.61814,-0.12193 -3.1721,-0.64173 -4.55181,-1.43598l-6.11071,-3.51863l0.88459,4.88402l8.70821,0.63975l-0.00049,-0.00049c0.8224,0.05381 1.6828,0.08096 2.5827,0.08096c6.9489,0 12.39271,-3.96586 12.39271,-9.02858c0.00049,-3.03931 -1.32689,-5.57659 -4.17813,-7.98257z" data-paper-data="{&quot;glyphName&quot;:&quot;s&quot;,&quot;glyphIndex&quot;:11,&quot;lastGlyphOfWord&quot;:true,&quot;word&quot;:2}" fill="#101820" id="element-id-21495"></path></g><g data-paper-data="{&quot;fillRule&quot;:&quot;evenodd&quot;,&quot;fillRuleOriginal&quot;:&quot;evenodd&quot;,&quot;isIcon&quot;:true,&quot;iconStyle&quot;:&quot;standalone&quot;,&quot;selectedEffects&quot;:{&quot;container&quot;:&quot;&quot;,&quot;transformation&quot;:&quot;&quot;,&quot;pattern&quot;:&quot;&quot;},&quot;bounds&quot;:{&quot;x&quot;:188.68409222696633,&quot;y&quot;:140.07202565674476,&quot;width&quot;:172.63181554606737,&quot;height&quot;:111.62920365197121},&quot;iconType&quot;:&quot;icon&quot;,&quot;rawIconId&quot;:&quot;3137682&quot;,&quot;isDetailed&quot;:false,&quot;suitableAsStandaloneIcon&quot;:true}" fill-rule="evenodd" id="element-id-10458"><g data-paper-data="{&quot;isPathIcon&quot;:true}" id="element-id-61222"><path d="M310.64017,153.07303c-32.20315,-26.67413 -80.99338,-10.16205 -90.78143,30.03614h-27.42013c-5.00602,0 -5.00602,7.54604 0,7.54604h30.40914c2.01701,0 3.58602,-1.49401 3.81102,-3.36202c2.16601,-11.35705 8.21804,-21.2941 16.73608,-28.39213c28.61614,-23.76011 72.47534,-7.77104 79.19937,28.61614c0.897,4.93102 8.36804,3.58602 7.47204,-1.34501c-2.46601,-13.22506 -9.48904,-24.80612 -19.42609,-33.09916z" fill="#101820" id="element-id-76319"></path><path d="M295.9951,216.88033c18.75409,-18.67909 5.38003,-50.73224 -20.9951,-50.73224c-16.43808,0 -29.73714,13.30006 -29.73714,29.73714c0,26.37512 32.05315,39.74919 50.73224,20.9951z" fill="#101820" id="element-id-43730"></path><path d="M330.14126,208.73629c-9.78805,40.12319 -58.57828,56.63527 -90.78143,29.96114c-9.93705,-8.29304 -16.96008,-19.87409 -19.42609,-33.09916c-0.896,-4.93102 6.57503,-6.27603 7.47204,-1.34501c6.72403,36.38717 50.58324,52.37625 79.19937,28.61714c8.51804,-7.09803 14.57007,-17.03608 16.73608,-28.39313c0.225,-1.86701 1.79401,-3.36202 3.81102,-3.36202h30.40914c5.00602,0 5.00602,7.62104 0,7.62104z" fill="#101820" id="element-id-38487"></path></g></g></g></g><rect data-element-id="element-id-58570" stroke-width="2" fill="transparent" class="invisible-element-box grouping-element" x="65" y="276" width="420" height="53" data-element-name="isPrimaryText"></rect><rect data-element-id="element-id-10458" stroke-width="2" fill="transparent" class="invisible-element-box grouping-element" x="189" y="140" width="173" height="112" data-element-name="isIcon"></rect><rect data-element-id="element-id-61222" stroke-width="2" fill="transparent" class="invisible-element-box individual-element" x="189" y="140" width="173" height="112"></rect><rect data-element-id="element-id-76319" stroke-width="2" fill="transparent" class="invisible-element-box individual-element" x="189" y="140" width="141" height="51"></rect><rect data-element-id="element-id-38487" stroke-width="2" fill="transparent" class="invisible-element-box individual-element" x="220" y="201" width="141" height="51"></rect><rect data-element-id="element-id-43730" stroke-width="2" fill="transparent" class="invisible-element-box individual-element" x="245" y="166" width="59" height="59"></rect><rect data-element-id="element-id-62390" stroke-width="2" fill="transparent" class="invisible-element-box individual-element" x="173" y="289" width="41" height="41"></rect><rect data-element-id="element-id-72560" stroke-width="2" fill="transparent" class="invisible-element-box individual-element" x="415" y="289" width="41" height="41"></rect><rect data-element-id="element-id-29829" stroke-width="2" fill="transparent" class="invisible-element-box individual-element" x="129" y="289" width="39" height="41"></rect><rect data-element-id="element-id-71895" stroke-width="2" fill="transparent" class="invisible-element-box individual-element" x="291" y="278" width="30" height="52"></rect><rect data-element-id="element-id-89836" stroke-width="2" fill="transparent" class="invisible-element-box individual-element" x="65" y="279" width="30" height="50"></rect><rect data-element-id="element-id-78494" stroke-width="2" fill="transparent" class="invisible-element-box individual-element" x="362" y="289" width="35" height="40"></rect><rect data-element-id="element-id-50309" stroke-width="2" fill="transparent" class="invisible-element-box individual-element" x="232" y="289" width="33" height="40"></rect><rect data-element-id="element-id-60931" stroke-width="2" fill="transparent" class="invisible-element-box individual-element" x="325" y="289" width="33" height="40"></rect><rect data-element-id="element-id-14797" stroke-width="2" fill="transparent" class="invisible-element-box individual-element" x="99" y="289" width="25" height="41"></rect><rect data-element-id="element-id-21495" stroke-width="2" fill="transparent" class="invisible-element-box individual-element" x="460" y="289" width="25" height="41"></rect><rect data-element-id="element-id-9953" stroke-width="2" fill="transparent" class="invisible-element-box individual-element" x="399" y="282" width="14" height="47"></rect><rect data-element-id="element-id-86093" stroke-width="2" fill="transparent" class="invisible-element-box individual-element" x="218" y="276" width="10" height="53"></rect></svg>